<svg version="1.2" xmlns="http://www.w3.org/2000/svg" viewBox="0 0 50 50" width="50" height="50"><style></style><path fill-rule="evenodd" d="m42.7 42.7c-4.9 4.8-11.3 7.3-17.7 7.3-6.4 0-12.8-2.5-17.7-7.3-9.7-9.8-9.7-25.6 0-35.4 9.8-9.7 25.6-9.7 35.4 0 9.7 9.8 9.7 25.6 0 35.4zm-2.6-2.6c8.4-8.3 8.4-21.9 0-30.3-4.1-4.1-9.6-6.2-15.1-6.2-5.5 0-11 2.1-15.2 6.2-8.3 8.4-8.3 22 0 30.3 8.4 8.4 22 8.4 30.3 0z"/><path  d="m40.4 25c0 1-0.8 1.8-1.7 1.8h-11.9v11.9c0 0.9-0.8 1.7-1.8 1.7-1 0-1.8-0.8-1.8-1.7v-11.9h-11.9c-1 0-1.8-0.8-1.8-1.8 0-1 0.8-1.8 1.8-1.8h11.9v-11.9c0-1 0.8-1.8 1.8-1.8 1 0 1.8 0.8 1.8 1.8v11.9h11.9c0.9 0 1.7 0.8 1.7 1.8z"/></svg>